<?xml version="1.0" standalone="no"?>
<!DOCTYPE svg PUBLIC "-//W3C//DTD SVG 20010904//EN"
 "http://www.w3.org/TR/2001/REC-SVG-20010904/DTD/svg10.dtd">
<svg version="1.0" xmlns="http://www.w3.org/2000/svg"
 width="192.000000pt" height="192.000000pt" viewBox="0 0 192.000000 192.000000"
 preserveAspectRatio="xMidYMid meet">

<g transform="translate(0.000000,192.000000) scale(0.100000,-0.100000)"
fill="#000000" stroke="none">
<path d="M354 1116 c-45 -20 -68 -75 -61 -146 2 -31 11 -66 18 -78 33 -52 135
-67 181 -25 63 55 62 181 0 237 -27 24 -98 30 -138 12z m106 -87 c13 -31 7
-83 -11 -106 -6 -7 -24 -13 -39 -13 -42 0 -63 64 -41 124 17 44 72 41 91 -5z"/>
<path d="M1044 1120 c-84 -34 -98 -214 -20 -261 37 -23 81 -24 118 -5 16 9 30
11 33 5 4 -5 13 -9 21 -9 11 0 14 16 14 75 l0 75 -60 0 c-57 0 -60 -1 -60 -25
0 -20 5 -25 23 -25 30 0 40 -10 26 -27 -14 -16 -63 -17 -76 0 -30 38 -22 110
14 134 22 15 26 15 53 -6 35 -25 80 -28 80 -5 0 61 -94 103 -166 74z"/>
<path d="M580 985 l0 -135 34 0 c34 0 35 1 38 47 4 69 30 70 54 4 17 -49 19
-51 56 -51 21 0 38 4 38 10 0 5 -10 30 -22 55 l-22 45 22 23 c29 30 30 89 2
117 -17 17 -33 20 -110 20 l-90 0 0 -135z m145 50 c0 -16 -7 -20 -35 -20 -29
0 -36 4 -38 23 -3 21 0 23 35 20 30 -2 38 -7 38 -23z"/>
<path d="M850 985 l0 -135 35 0 35 0 0 135 0 135 -35 0 -35 0 0 -135z"/>
<path d="M1270 985 l0 -135 35 0 35 0 0 135 0 135 -35 0 -35 0 0 -135z"/>
<path d="M1400 985 l0 -135 30 0 c29 0 29 0 32 68 l3 67 48 -67 c44 -61 52
-68 83 -68 l34 0 0 135 0 135 -35 0 -35 0 0 -67 0 -67 -47 67 c-42 60 -50 67
-80 67 l-33 0 0 -135z"/>
<path d="M643 745 c-3 -9 -3 -18 -1 -21 3 -3 8 4 11 16 6 23 -1 27 -10 5z"/>
<path d="M713 745 c-3 -9 -3 -18 -1 -21 3 -3 8 4 11 16 6 23 -1 27 -10 5z"/>
<path d="M747 739 c4 -13 8 -18 11 -10 2 7 -1 18 -6 23 -8 8 -9 4 -5 -13z"/>
<path d="M897 740 c3 -11 7 -20 9 -20 2 0 4 9 4 20 0 11 -4 20 -9 20 -5 0 -7
-9 -4 -20z"/>
<path d="M937 739 c4 -13 8 -18 11 -10 2 7 -1 18 -6 23 -8 8 -9 4 -5 -13z"/>
<path d="M1122 740 c0 -14 2 -19 5 -12 2 6 2 18 0 25 -3 6 -5 1 -5 -13z"/>
</g>
</svg>
