<svg width="133" height="29" viewBox="0 0 133 29" fill="none" xmlns="http://www.w3.org/2000/svg">
<path fill-rule="evenodd" clip-rule="evenodd" d="M6.13219 1.01C-1.49981 4.084 -2.20381 21.573 5.12519 26.042C8.92019 28.356 14.8192 28.571 18.7502 26.538C21.8612 24.929 24.8242 18.813 24.8242 14C24.8242 9.187 21.8612 3.071 18.7502 1.462C15.6392 -0.147 9.54619 -0.365 6.13219 1.01ZM29.8242 14V28H32.8242C35.7532 28 35.8242 27.882 35.8242 23.059C35.8242 15.056 38.7652 15.163 41.9272 23.28C43.4492 27.186 43.8762 27.523 47.6682 27.806L51.7652 28.112L49.2232 22.561L46.6812 17.009L48.7532 14.1C51.5802 10.129 51.4282 5.513 48.3692 2.455C46.1702 0.255 45.0782 0 37.8692 0H29.8242V14ZM55.8242 14V28H59.3242H62.8242V14V0H59.3242H55.8242V14ZM73.7122 1.5C67.1802 5.05 66.4092 21.168 72.5402 25.991C75.6512 28.438 82.4232 28.67 85.6092 26.438C87.6312 25.022 87.8952 25.022 88.4392 26.438C88.7682 27.297 89.6652 28 90.4312 28C91.4982 28 91.8242 26.244 91.8242 20.5V13H86.3242C81.1242 13 80.8242 13.136 80.8242 15.5C80.8242 17.5 81.3242 18 83.3242 18C86.0542 18 86.4882 18.936 84.6242 20.8C82.8882 22.536 78.2952 22.273 76.6962 20.346C75.9422 19.437 75.3242 16.581 75.3242 14C75.3242 11.419 75.9422 8.563 76.6962 7.654C78.6252 5.33 83.5152 5.532 85.0562 8C85.8152 9.215 87.3882 10 89.0652 10C92.8272 10 92.7522 6.774 88.9012 2.923C86.4602 0.482 85.1822 0.00699996 81.1512 0.04C78.4962 0.062 75.1492 0.719 73.7122 1.5ZM97.8242 14V28H101.324H104.824V14V0H101.324H97.8242V14ZM110.824 14V28H113.78H116.736L117.03 20.817L117.324 13.634L122.558 20.817C126.654 26.437 128.34 28 130.308 28H132.824V14V0H129.87C126.918 0 126.915 0.00699997 126.62 6.75L126.324 13.5L121.486 6.75C117.415 1.069 116.187 0 113.736 0H110.824V14ZM16.2672 8.223C19.7042 13.129 17.1652 22 12.3242 22C9.14019 22 6.8242 18.466 6.8242 13.606C6.8242 6.756 12.8382 3.327 16.2672 8.223ZM43.3242 9C43.3242 11.167 42.8252 11.541 39.5742 11.81C35.9752 12.108 35.8242 11.995 35.8242 9C35.8242 6.005 35.9752 5.892 39.5742 6.19C42.8252 6.459 43.3242 6.833 43.3242 9Z" fill="#FF1919"/>
</svg>
