<svg width="69" height="28" viewBox="0 0 69 28" fill="none" xmlns="http://www.w3.org/2000/svg">
<path d="M 26.8 22.6 C 27.2 22.6 27.6 22.7 27.8 22.8 C 28.1 23 28.3 23.3 28.3 23.6 V 23.7 H 27.3 V 23.6 C 27.3 23.5 27.2 23.5 27.2 23.4 C 27.1 23.3 27 23.3 26.8 23.3 C 26.7 23.3 26.6 23.3 26.5 23.4 C 26.4 23.4 26.4 23.5 26.4 23.5 C 26.4 23.6 26.4 23.7 26.5 23.7 C 26.6 23.8 26.8 23.8 27 23.9 C 27.3 23.9 27.5 24 27.7 24 C 27.9 24.1 28 24.2 28.2 24.3 C 28.3 24.5 28.4 24.6 28.4 24.9 C 28.4 25.3 28.2 25.6 28 25.8 C 27.7 26 27.3 26.1 26.9 26.1 C 26.4 26.1 25.9 26 25.7 25.8 C 25.4 25.6 25.2 25.3 25.2 24.9 H 26.2 C 26.2 25 26.3 25.1 26.4 25.2 C 26.5 25.3 26.6 25.3 26.8 25.3 C 26.9 25.3 27 25.3 27.1 25.2 C 27.2 25.2 27.3 25.2 27.3 25.1 C 27.3 25 27.2 24.9 27.1 24.9 C 27 24.8 26.8 24.8 26.6 24.7 C 26.3 24.7 26.1 24.6 25.9 24.6 C 25.8 24.5 25.6 24.4 25.5 24.2 C 25.3 24.1 25.3 23.9 25.3 23.6 C 25.3 23.3 25.4 23 25.7 22.8 C 26 22.7 26.3 22.6 26.8 22.6 Z M 30.8 23.5 V 26 H 29.8 V 23.5 H 28.7 V 22.6 H 31.9 V 23.5 H 30.8 Z M 34 22.6 C 34.5 22.6 35 22.7 35.3 23 C 35.6 23.3 35.8 23.7 35.8 24.3 C 35.8 24.9 35.6 25.3 35.3 25.6 C 35 25.9 34.5 26.1 34 26.1 C 33.4 26.1 32.9 25.9 32.6 25.6 C 32.3 25.3 32.1 24.9 32.1 24.3 C 32.1 23.7 32.3 23.3 32.6 23 C 32.9 22.7 33.4 22.6 34 22.6 Z M 34 23.4 C 33.7 23.4 33.5 23.4 33.4 23.6 C 33.3 23.7 33.2 23.9 33.2 24.2 V 24.5 C 33.2 24.7 33.3 24.9 33.4 25 C 33.5 25.2 33.7 25.3 34 25.3 C 34.2 25.3 34.4 25.2 34.5 25 C 34.6 24.9 34.7 24.7 34.7 24.5 V 24.2 C 34.7 23.9 34.6 23.7 34.5 23.6 C 34.4 23.4 34.2 23.4 34 23.4 Z M 39.6 23.7 C 39.6 23.9 39.5 24.1 39.4 24.2 C 39.3 24.4 39.1 24.5 38.9 24.6 L 39.7 26 H 38.4 L 37.8 24.8 H 37.4 V 26 H 36.4 V 22.6 H 38.4 C 38.7 22.6 38.9 22.7 39 22.8 C 39.2 22.9 39.3 23 39.4 23.1 C 39.5 23.3 39.6 23.5 39.6 23.7 Z M 38.5 23.7 C 38.5 23.6 38.4 23.5 38.4 23.5 C 38.3 23.4 38.2 23.4 38.2 23.4 H 37.4 V 24 H 38.2 C 38.2 24 38.3 24 38.4 23.9 C 38.4 23.9 38.5 23.8 38.5 23.7 Z M 40.2 22.6 H 43.1 V 23.4 H 41.3 V 23.9 H 42.8 V 24.7 H 41.3 V 25.2 H 43.1 V 26 H 40.2 V 22.6 Z" fill="#ff1919"/>
<path d="M 27.8 22.8 L 27.8 22.9 L 27.8 22.9 L 27.8 22.8 Z M 28.3 23.6 H 28.3 L 28.3 23.6 L 28.3 23.6 Z M 28.3 23.7 V 23.7 H 28.3 V 23.7 H 28.3 Z M 27.3 23.7 H 27.2 V 23.7 H 27.3 V 23.7 Z M 27.2 23.4 L 27.2 23.4 L 27.2 23.4 L 27.2 23.4 Z M 26.5 23.4 L 26.5 23.3 L 26.5 23.3 L 26.5 23.4 Z M 26.5 23.7 L 26.5 23.7 L 26.5 23.7 L 26.5 23.7 Z M 27 23.9 L 27 23.8 L 27 23.8 L 27 23.9 Z M 27.7 24 L 27.7 24.1 L 27.7 24.1 L 27.7 24 Z M 28.4 24.9 H 28.4 L 28.4 24.9 L 28.4 24.9 Z M 28 25.8 L 27.9 25.7 L 27.9 25.7 L 28 25.8 Z M 25.7 25.8 L 25.6 25.8 L 25.6 25.8 L 25.7 25.8 Z M 25.2 24.9 V 24.8 H 25.2 V 24.9 H 25.2 Z M 26.2 24.9 H 26.3 V 24.8 H 26.2 V 24.9 Z M 26.4 25.2 L 26.4 25.2 L 26.4 25.2 L 26.4 25.2 Z M 27.1 25.2 L 27.1 25.2 L 27.1 25.2 L 27.1 25.2 Z M 27.1 24.9 L 27.1 24.9 L 27.1 24.9 L 27.1 24.9 Z M 26.6 24.7 L 26.6 24.8 L 26.6 24.8 L 26.6 24.7 Z M 25.9 24.6 L 25.9 24.6 L 25.9 24.6 L 25.9 24.6 Z M 25.5 24.2 L 25.4 24.3 L 25.4 24.3 L 25.5 24.2 Z M 25.7 22.8 L 25.7 22.9 L 25.7 22.9 L 25.7 22.8 Z M 26.8 22.6 C 27.2 22.6 27.6 22.7 27.8 22.9 L 27.9 22.8 C 27.6 22.6 27.2 22.5 26.8 22.5 V 22.6 Z M 27.8 22.9 C 28.1 23 28.2 23.3 28.2 23.6 L 28.3 23.6 C 28.3 23.3 28.1 23 27.9 22.8 L 27.8 22.9 Z M 28.2 23.6 V 23.7 H 28.3 V 23.6 H 28.2 Z M 28.3 23.6 H 27.3 V 23.7 H 28.3 V 23.6 Z M 27.3 23.7 V 23.6 H 27.2 V 23.7 H 27.3 Z M 27.3 23.6 C 27.3 23.5 27.2 23.5 27.2 23.4 L 27.1 23.4 C 27.2 23.5 27.2 23.6 27.2 23.6 H 27.3 Z M 27.2 23.4 C 27.1 23.3 27 23.3 26.8 23.3 V 23.3 C 27 23.3 27.1 23.4 27.1 23.4 L 27.2 23.4 Z M 26.8 23.3 C 26.7 23.3 26.6 23.3 26.5 23.3 L 26.5 23.4 C 26.6 23.4 26.7 23.3 26.8 23.3 V 23.3 Z M 26.5 23.3 C 26.4 23.4 26.3 23.4 26.3 23.5 H 26.4 C 26.4 23.5 26.4 23.4 26.5 23.4 L 26.5 23.3 Z M 26.3 23.5 C 26.3 23.6 26.4 23.6 26.4 23.7 C 26.4 23.7 26.5 23.7 26.5 23.7 L 26.5 23.7 C 26.5 23.7 26.5 23.6 26.4 23.6 C 26.4 23.6 26.4 23.6 26.4 23.5 H 26.3 Z M 26.5 23.7 C 26.6 23.8 26.8 23.8 27 23.9 L 27 23.8 C 26.8 23.8 26.6 23.7 26.5 23.7 L 26.5 23.7 Z M 27 23.9 C 27.3 23.9 27.5 24 27.7 24.1 L 27.7 24 C 27.5 23.9 27.3 23.9 27 23.8 L 27 23.9 Z M 27.7 24.1 C 27.9 24.1 28 24.2 28.1 24.3 L 28.2 24.3 C 28.1 24.2 27.9 24.1 27.7 24 L 27.7 24.1 Z M 28.1 24.3 C 28.3 24.5 28.3 24.7 28.3 24.9 L 28.4 24.9 C 28.4 24.6 28.3 24.4 28.2 24.3 L 28.1 24.3 Z M 28.3 24.9 C 28.3 25.3 28.2 25.6 27.9 25.7 L 28 25.8 C 28.3 25.6 28.4 25.3 28.4 24.9 H 28.3 Z M 27.9 25.7 C 27.7 25.9 27.3 26 26.9 26 V 26.1 C 27.3 26.1 27.7 26 28 25.8 L 27.9 25.7 Z M 26.9 26 C 26.4 26 26 25.9 25.7 25.8 L 25.6 25.8 C 25.9 26 26.4 26.1 26.9 26.1 V 26 Z M 25.7 25.8 C 25.4 25.6 25.2 25.3 25.2 24.9 H 25.2 C 25.2 25.3 25.3 25.6 25.6 25.8 L 25.7 25.8 Z M 25.2 24.9 H 26.2 V 24.8 H 25.2 V 24.9 Z M 26.2 24.9 C 26.2 25 26.3 25.2 26.4 25.2 L 26.4 25.2 C 26.3 25.1 26.3 25 26.3 24.9 H 26.2 Z M 26.4 25.2 C 26.5 25.3 26.6 25.3 26.8 25.3 V 25.3 C 26.6 25.3 26.5 25.2 26.4 25.2 L 26.4 25.2 Z M 26.8 25.3 C 26.9 25.3 27 25.3 27.1 25.3 L 27.1 25.2 C 27 25.2 26.9 25.3 26.8 25.3 V 25.3 Z M 27.1 25.3 C 27.2 25.3 27.2 25.2 27.2 25.2 C 27.3 25.2 27.3 25.1 27.3 25.1 H 27.2 C 27.2 25.1 27.2 25.1 27.2 25.2 C 27.2 25.2 27.2 25.2 27.1 25.2 L 27.1 25.3 Z M 27.3 25.1 C 27.3 25 27.3 25 27.2 24.9 C 27.2 24.9 27.2 24.9 27.1 24.9 L 27.1 24.9 C 27.1 24.9 27.2 24.9 27.2 25 C 27.2 25 27.2 25 27.2 25.1 H 27.3 Z M 27.1 24.9 C 27 24.8 26.9 24.8 26.6 24.7 L 26.6 24.8 C 26.8 24.8 27 24.9 27.1 24.9 L 27.1 24.9 Z M 26.6 24.7 C 26.4 24.7 26.1 24.6 26 24.5 L 25.9 24.6 C 26.1 24.7 26.3 24.7 26.6 24.8 L 26.6 24.7 Z M 26 24.5 C 25.8 24.5 25.6 24.4 25.5 24.2 L 25.4 24.3 C 25.6 24.4 25.7 24.5 25.9 24.6 L 26 24.5 Z M 25.5 24.2 C 25.4 24.1 25.3 23.9 25.3 23.6 H 25.2 C 25.2 23.9 25.3 24.1 25.4 24.3 L 25.5 24.2 Z M 25.3 23.6 C 25.3 23.3 25.4 23 25.7 22.9 L 25.7 22.8 C 25.4 23 25.2 23.3 25.2 23.6 H 25.3 Z M 25.7 22.9 C 26 22.7 26.4 22.6 26.8 22.6 V 22.5 C 26.3 22.5 26 22.6 25.7 22.8 L 25.7 22.9 Z M 30.8 23.5 V 23.5 H 30.8 V 23.5 H 30.8 Z M 30.8 26 V 26 H 30.9 V 26 H 30.8 Z M 29.8 26 H 29.7 V 26 H 29.8 V 26 Z M 29.8 23.5 H 29.8 V 23.5 H 29.8 V 23.5 Z M 28.7 23.5 H 28.6 V 23.5 H 28.7 V 23.5 Z M 28.7 22.6 V 22.6 H 28.6 V 22.6 H 28.7 Z M 31.9 22.6 H 32 V 22.6 H 31.9 V 22.6 Z M 31.9 23.5 V 23.5 H 32 V 23.5 H 31.9 Z M 30.8 23.5 V 26 H 30.9 V 23.5 H 30.8 Z M 30.8 26 H 29.8 V 26 H 30.8 V 26 Z M 29.8 26 V 23.5 H 29.7 V 26 H 29.8 Z M 29.8 23.5 H 28.7 V 23.5 H 29.8 V 23.5 Z M 28.7 23.5 V 22.6 H 28.6 V 23.5 H 28.7 Z M 28.7 22.7 H 31.9 V 22.6 H 28.7 V 22.7 Z M 31.9 22.6 V 23.5 H 32 V 22.6 H 31.9 Z M 31.9 23.5 H 30.8 V 23.5 H 31.9 V 23.5 Z M 35.3 25.6 L 35.3 25.6 L 35.3 25.6 L 35.3 25.6 Z M 32.6 25.6 L 32.6 25.6 L 32.6 25.6 L 32.6 25.6 Z M 32.6 23 L 32.6 23 L 32.6 23 L 32.6 23 Z M 33.4 23.6 L 33.4 23.6 L 33.4 23.6 L 33.4 23.6 Z M 33.4 25 L 33.4 25.1 L 33.4 25 Z M 34.5 25 L 34.5 25 L 34.5 25 L 34.5 25 Z M 34.5 23.6 L 34.5 23.6 L 34.5 23.6 L 34.5 23.6 Z M 34 22.6 C 34.5 22.6 35 22.7 35.3 23 L 35.3 23 C 35 22.7 34.5 22.5 34 22.5 V 22.6 Z M 35.3 23 C 35.6 23.3 35.7 23.8 35.7 24.3 H 35.8 C 35.8 23.7 35.6 23.3 35.3 23 L 35.3 23 Z M 35.7 24.3 C 35.7 24.9 35.6 25.3 35.3 25.6 L 35.3 25.6 C 35.6 25.3 35.8 24.9 35.8 24.3 H 35.7 Z M 35.3 25.6 C 35 25.9 34.5 26 34 26 V 26.1 C 34.5 26.1 35 25.9 35.3 25.6 L 35.3 25.6 Z M 34 26 C 33.4 26 32.9 25.9 32.6 25.6 L 32.6 25.6 C 32.9 25.9 33.4 26.1 34 26.1 V 26 Z M 32.6 25.6 C 32.3 25.3 32.2 24.9 32.2 24.3 H 32.1 C 32.1 24.9 32.3 25.3 32.6 25.6 L 32.6 25.6 Z M 32.2 24.3 C 32.2 23.7 32.3 23.3 32.6 23 L 32.6 23 C 32.3 23.3 32.1 23.7 32.1 24.3 H 32.2 Z M 32.6 23 C 32.9 22.7 33.4 22.6 34 22.6 V 22.5 C 33.4 22.5 32.9 22.7 32.6 23 L 32.6 23 Z M 34 23.3 C 33.7 23.3 33.5 23.4 33.4 23.6 L 33.4 23.6 C 33.6 23.5 33.7 23.4 34 23.4 V 23.3 Z M 33.4 23.6 C 33.3 23.7 33.2 23.9 33.2 24.2 H 33.3 C 33.3 23.9 33.3 23.7 33.4 23.6 L 33.4 23.6 Z M 33.2 24.2 V 24.5 H 33.3 V 24.2 H 33.2 Z M 33.2 24.5 C 33.2 24.7 33.3 24.9 33.4 25.1 L 33.4 25 C 33.3 24.9 33.3 24.7 33.3 24.5 H 33.2 Z M 33.4 25.1 C 33.5 25.2 33.7 25.3 34 25.3 V 25.2 C 33.7 25.2 33.6 25.2 33.4 25 L 33.4 25.1 Z M 34 25.3 C 34.2 25.3 34.4 25.2 34.5 25.1 L 34.5 25 C 34.3 25.2 34.2 25.2 34 25.2 V 25.3 Z M 34.5 25.1 C 34.6 24.9 34.7 24.7 34.7 24.5 H 34.6 C 34.6 24.7 34.6 24.9 34.5 25 L 34.5 25.1 Z M 34.7 24.5 V 24.2 H 34.6 V 24.5 H 34.7 Z M 34.7 24.2 C 34.7 23.9 34.6 23.7 34.5 23.6 L 34.5 23.6 C 34.6 23.7 34.6 23.9 34.6 24.2 H 34.7 Z M 34.5 23.6 C 34.4 23.4 34.2 23.3 34 23.3 V 23.4 C 34.2 23.4 34.3 23.5 34.5 23.6 L 34.5 23.6 Z M 39.4 24.2 L 39.4 24.2 L 39.4 24.2 L 39.4 24.2 Z M 38.9 24.6 L 38.9 24.6 L 38.9 24.6 L 38.9 24.6 L 38.9 24.6 Z M 39.7 26 V 26 H 39.7 L 39.7 26 L 39.7 26 Z M 38.4 26 L 38.4 26 L 38.4 26 H 38.4 V 26 Z M 37.8 24.8 L 37.9 24.8 L 37.9 24.7 H 37.8 V 24.8 Z M 37.4 24.8 V 24.7 H 37.4 V 24.8 H 37.4 Z M 37.4 26 V 26 H 37.5 V 26 H 37.4 Z M 36.4 26 H 36.3 V 26 H 36.4 V 26 Z M 36.4 22.6 V 22.6 H 36.3 V 22.6 H 36.4 Z M 39 22.8 L 39 22.8 L 39 22.8 L 39 22.8 Z M 39.4 23.1 L 39.4 23.2 L 39.4 23.2 L 39.4 23.1 Z M 38.4 23.5 L 38.3 23.5 L 38.3 23.5 L 38.4 23.5 Z M 37.4 23.4 V 23.4 H 37.4 V 23.4 H 37.4 Z M 37.4 24 H 37.4 V 24 H 37.4 V 24 Z M 38.4 23.9 L 38.4 24 L 38.4 24 L 38.4 23.9 Z M 39.5 23.7 C 39.5 23.9 39.5 24 39.4 24.2 L 39.4 24.2 C 39.5 24.1 39.6 23.9 39.6 23.7 H 39.5 Z M 39.4 24.2 C 39.3 24.4 39.1 24.5 38.9 24.6 L 38.9 24.6 C 39.1 24.5 39.3 24.4 39.4 24.2 L 39.4 24.2 Z M 38.9 24.6 L 39.6 26 L 39.7 26 L 38.9 24.6 L 38.9 24.6 Z M 39.7 26 H 38.4 V 26 H 39.7 V 26 Z M 38.5 26 L 37.9 24.8 L 37.8 24.8 L 38.4 26 L 38.5 26 Z M 37.8 24.7 H 37.4 V 24.8 H 37.8 V 24.7 Z M 37.4 24.8 V 26 H 37.5 V 24.8 H 37.4 Z M 37.4 26 H 36.4 V 26 H 37.4 V 26 Z M 36.4 26 V 22.6 H 36.3 V 26 H 36.4 Z M 36.4 22.7 H 38.4 V 22.6 H 36.4 V 22.7 Z M 38.4 22.7 C 38.7 22.7 38.9 22.7 39 22.8 L 39.1 22.7 C 38.9 22.6 38.7 22.6 38.4 22.6 V 22.7 Z M 39 22.8 C 39.2 22.9 39.3 23 39.4 23.2 L 39.4 23.1 C 39.4 23 39.2 22.8 39.1 22.7 L 39 22.8 Z M 39.4 23.2 C 39.5 23.3 39.5 23.5 39.5 23.7 H 39.6 C 39.6 23.5 39.5 23.3 39.4 23.1 L 39.4 23.2 Z M 38.5 23.7 C 38.5 23.6 38.5 23.5 38.4 23.5 L 38.3 23.5 C 38.4 23.6 38.4 23.6 38.4 23.7 H 38.5 Z M 38.4 23.5 C 38.3 23.4 38.2 23.4 38.2 23.4 V 23.4 C 38.2 23.4 38.3 23.5 38.3 23.5 L 38.4 23.5 Z M 38.2 23.4 H 37.4 V 23.4 H 38.2 V 23.4 Z M 37.4 23.4 V 24 H 37.5 V 23.4 H 37.4 Z M 37.4 24 H 38.2 V 24 H 37.4 V 24 Z M 38.2 24 C 38.2 24 38.3 24 38.4 24 L 38.3 23.9 C 38.3 24 38.2 24 38.2 24 V 24 Z M 38.4 24 C 38.5 23.9 38.5 23.8 38.5 23.7 H 38.4 C 38.4 23.8 38.4 23.9 38.3 23.9 L 38.4 24 Z M 40.2 22.6 V 22.6 H 40.1 V 22.6 H 40.2 Z M 43.1 22.6 H 43.1 V 22.6 H 43.1 V 22.6 Z M 43.1 23.4 V 23.5 H 43.1 V 23.4 H 43.1 Z M 41.3 23.4 V 23.4 H 41.2 V 23.4 H 41.3 Z M 41.3 23.9 H 41.2 V 23.9 H 41.3 V 23.9 Z M 42.8 23.9 H 42.9 V 23.9 H 42.8 V 23.9 Z M 42.8 24.7 V 24.7 H 42.9 V 24.7 H 42.8 Z M 41.3 24.7 V 24.6 H 41.2 V 24.7 H 41.3 Z M 41.3 25.2 H 41.2 V 25.2 H 41.3 V 25.2 Z M 43.1 25.2 H 43.1 V 25.2 H 43.1 V 25.2 Z M 43.1 26 V 26 H 43.1 V 26 H 43.1 Z M 40.2 26 H 40.1 V 26 H 40.2 V 26 Z M 40.2 22.7 H 43.1 V 22.6 H 40.2 V 22.7 Z M 43.1 22.6 V 23.4 H 43.1 V 22.6 H 43.1 Z M 43.1 23.4 H 41.3 V 23.5 H 43.1 V 23.4 Z M 41.2 23.4 V 23.9 H 41.3 V 23.4 H 41.2 Z M 41.3 23.9 H 42.8 V 23.9 H 41.3 V 23.9 Z M 42.8 23.9 V 24.7 H 42.9 V 23.9 H 42.8 Z M 42.8 24.6 H 41.3 V 24.7 H 42.8 V 24.6 Z M 41.2 24.7 V 25.2 H 41.3 V 24.7 H 41.2 Z M 41.3 25.2 H 43.1 V 25.2 H 41.3 V 25.2 Z M 43.1 25.2 V 26 H 43.1 V 25.2 H 43.1 Z M 43.1 26 H 40.2 V 26 H 43.1 V 26 Z M 40.2 26 V 22.6 H 40.1 V 26 H 40.2 Z" fill="black"/>
<path d="M 8 4.1 C 9.9 4.1 11.5 4.6 12.6 5.6 C 13.6 6.6 14.2 8.1 14.2 10.1 C 14.2 12 13.6 13.5 12.6 14.5 C 11.5 15.5 9.9 16 8 16 C 6 16 4.4 15.5 3.4 14.5 C 2.3 13.5 1.8 12 1.8 10.1 C 1.8 8.1 2.3 6.6 3.4 5.6 C 4.4 4.6 6 4.1 8 4.1 Z M 8 6.9 C 7.2 6.9 6.6 7.1 6.1 7.6 C 5.7 8.1 5.5 8.7 5.5 9.5 V 10.6 C 5.5 11.4 5.7 12.1 6.1 12.5 C 6.6 13 7.2 13.3 8 13.3 C 8.7 13.3 9.3 13 9.8 12.5 C 10.2 12.1 10.4 11.4 10.4 10.6 V 9.5 C 10.4 8.7 10.2 8.1 9.8 7.6 C 9.3 7.1 8.7 6.9 8 6.9 Z M 27.1 7.8 C 27.1 8.5 26.9 9.2 26.5 9.7 C 26.1 10.3 25.6 10.7 24.9 11 L 27.4 15.8 H 23.3 L 21.2 11.6 H 19.9 V 15.8 H 16.2 V 4.3 H 23.2 C 24 4.3 24.7 4.5 25.3 4.8 C 25.9 5.1 26.3 5.5 26.6 6.1 C 26.9 6.6 27.1 7.2 27.1 7.8 Z M 23.3 8 C 23.3 7.7 23.2 7.4 23 7.2 C 22.8 7 22.6 6.9 22.3 6.9 H 19.9 V 9.1 H 22.3 C 22.6 9.1 22.8 9 23 8.8 C 23.2 8.6 23.3 8.3 23.3 8 Z M 29.3 15.8 V 4.3 H 33 V 15.8 H 29.3 Z M 41.5 4.1 C 42.6 4.1 43.6 4.3 44.4 4.6 C 45.3 4.9 46 5.4 46.5 6.1 C 47.1 6.7 47.3 7.5 47.3 8.5 H 43.8 C 43.8 8 43.6 7.6 43.2 7.3 C 42.7 7 42.2 6.9 41.6 6.9 C 40.7 6.9 40.1 7.1 39.6 7.6 C 39.2 8 39 8.7 39 9.5 V 10.6 C 39 11.4 39.2 12.1 39.6 12.6 C 40.1 13 40.7 13.3 41.6 13.3 C 42.2 13.3 42.7 13.1 43.2 12.8 C 43.6 12.6 43.8 12.2 43.8 11.7 H 41.2 V 9.4 H 47.3 V 15.8 H 45.4 L 45 14.7 C 44 15.6 42.6 16 40.9 16 C 39 16 37.6 15.5 36.6 14.5 C 35.7 13.5 35.2 12 35.2 10.1 C 35.2 8.1 35.7 6.6 36.8 5.6 C 37.9 4.6 39.5 4.1 41.5 4.1 Z M 49.8 15.8 V 4.3 H 53.5 V 15.8 H 49.8 Z M 64.3 15.8 L 59.5 10.2 V 15.8 H 56.1 V 4.3 H 59.3 L 64.2 10 V 4.3 H 67.6 V 15.8 H 64.3 Z" fill="#ff1919"/>
<path d="M 12.6 14.5 L 12.5 14.5 L 12.5 14.5 L 12.6 14.5 Z M 3.4 14.5 L 3.3 14.5 L 3.3 14.5 L 3.4 14.5 Z M 3.4 5.6 L 3.4 5.7 L 3.4 5.7 L 3.4 5.6 Z M 6.1 7.6 L 6.2 7.6 L 6.2 7.6 L 6.1 7.6 Z M 9.8 12.5 L 9.7 12.5 L 9.7 12.5 L 9.8 12.5 Z M 9.8 7.6 L 9.7 7.6 L 9.7 7.6 L 9.8 7.6 Z M 8 4.1 C 9.9 4.1 11.5 4.6 12.5 5.7 L 12.6 5.6 C 11.5 4.6 9.9 4.1 8 4.1 V 4.1 Z M 12.5 5.7 C 13.6 6.7 14.1 8.1 14.1 10.1 H 14.2 C 14.2 8.1 13.7 6.6 12.6 5.6 L 12.5 5.7 Z M 14.1 10.1 C 14.1 12 13.6 13.5 12.5 14.5 L 12.6 14.5 C 13.7 13.5 14.2 12 14.2 10.1 H 14.1 Z M 12.5 14.5 C 11.5 15.5 9.9 16 8 16 V 16 C 9.9 16 11.5 15.5 12.6 14.5 L 12.5 14.5 Z M 8 16 C 6 16 4.5 15.5 3.4 14.5 L 3.3 14.5 C 4.4 15.5 6 16 8 16 V 16 Z M 3.4 14.5 C 2.3 13.5 1.8 12 1.8 10.1 H 1.7 C 1.7 12 2.3 13.5 3.3 14.5 L 3.4 14.5 Z M 1.8 10.1 C 1.8 8.1 2.3 6.7 3.4 5.7 L 3.3 5.6 C 2.3 6.6 1.7 8.1 1.7 10.1 H 1.8 Z M 3.4 5.7 C 4.5 4.6 6 4.1 8 4.1 V 4.1 C 6 4.1 4.4 4.6 3.3 5.6 L 3.4 5.7 Z M 8 6.8 C 7.2 6.8 6.5 7.1 6.1 7.6 L 6.2 7.6 C 6.6 7.1 7.2 6.9 8 6.9 V 6.8 Z M 6.1 7.6 C 5.7 8.1 5.5 8.7 5.5 9.5 H 5.6 C 5.6 8.7 5.8 8.1 6.2 7.6 L 6.1 7.6 Z M 5.5 9.5 V 10.6 H 5.6 V 9.5 H 5.5 Z M 5.5 10.6 C 5.5 11.4 5.7 12.1 6.1 12.6 L 6.2 12.5 C 5.8 12 5.6 11.4 5.6 10.6 H 5.5 Z M 6.1 12.6 C 6.5 13 7.2 13.3 8 13.3 V 13.2 C 7.2 13.2 6.6 13 6.2 12.5 L 6.1 12.6 Z M 8 13.3 C 8.8 13.3 9.4 13 9.8 12.6 L 9.7 12.5 C 9.3 13 8.7 13.2 8 13.2 V 13.3 Z M 9.8 12.6 C 10.2 12.1 10.4 11.4 10.4 10.6 H 10.4 C 10.4 11.4 10.2 12 9.7 12.5 L 9.8 12.6 Z M 10.4 10.6 V 9.5 H 10.4 V 10.6 H 10.4 Z M 10.4 9.5 C 10.4 8.7 10.2 8.1 9.8 7.6 L 9.7 7.6 C 10.2 8.1 10.4 8.7 10.4 9.5 H 10.4 Z M 9.8 7.6 C 9.4 7.1 8.8 6.8 8 6.8 V 6.9 C 8.7 6.9 9.3 7.1 9.7 7.6 L 9.8 7.6 Z M 26.5 9.7 L 26.5 9.7 L 26.5 9.7 L 26.5 9.7 Z M 24.9 11 L 24.9 11 L 24.8 11 L 24.8 11 L 24.9 11 Z M 27.4 15.8 V 15.8 H 27.5 L 27.4 15.8 L 27.4 15.8 Z M 23.3 15.8 L 23.2 15.8 L 23.3 15.8 H 23.3 V 15.8 Z M 21.2 11.6 L 21.3 11.6 L 21.2 11.6 H 21.2 V 11.6 Z M 19.9 11.6 V 11.6 H 19.8 V 11.6 H 19.9 Z M 19.9 15.8 V 15.8 H 19.9 V 15.8 H 19.9 Z M 16.2 15.8 H 16.1 V 15.8 H 16.2 V 15.8 Z M 16.2 4.3 V 4.3 H 16.1 V 4.3 H 16.2 Z M 25.3 4.8 L 25.3 4.8 L 25.3 4.8 L 25.3 4.8 Z M 26.6 6.1 L 26.6 6.1 L 26.6 6.1 L 26.6 6.1 Z M 23 7.2 L 23 7.3 L 23 7.3 L 23 7.2 Z M 19.9 6.9 V 6.9 H 19.8 V 6.9 H 19.9 Z M 19.9 9.1 H 19.8 V 9.1 H 19.9 V 9.1 Z M 23 8.8 L 23 8.8 L 23 8.8 L 23 8.8 Z M 27.1 7.8 C 27.1 8.5 26.9 9.2 26.5 9.7 L 26.5 9.8 C 26.9 9.2 27.1 8.6 27.1 7.8 H 27.1 Z M 26.5 9.7 C 26.1 10.3 25.6 10.7 24.9 11 L 24.9 11 C 25.6 10.8 26.2 10.3 26.5 9.8 L 26.5 9.7 Z M 24.8 11 L 27.4 15.8 L 27.4 15.8 L 24.9 11 L 24.8 11 Z M 27.4 15.8 H 23.3 V 15.8 H 27.4 V 15.8 Z M 23.3 15.8 L 21.3 11.6 L 21.2 11.6 L 23.2 15.8 L 23.3 15.8 Z M 21.2 11.6 H 19.9 V 11.6 H 21.2 V 11.6 Z M 19.8 11.6 V 15.8 H 19.9 V 11.6 H 19.8 Z M 19.9 15.8 H 16.2 V 15.8 H 19.9 V 15.8 Z M 16.2 15.8 V 4.3 H 16.1 V 15.8 H 16.2 Z M 16.2 4.3 H 23.2 V 4.3 H 16.2 V 4.3 Z M 23.2 4.3 C 24 4.3 24.7 4.5 25.3 4.8 L 25.3 4.8 C 24.7 4.4 24 4.3 23.2 4.3 V 4.3 Z M 25.3 4.8 C 25.9 5.1 26.3 5.6 26.6 6.1 L 26.7 6.1 C 26.4 5.5 25.9 5.1 25.3 4.8 L 25.3 4.8 Z M 26.6 6.1 C 26.9 6.6 27.1 7.2 27.1 7.8 H 27.1 C 27.1 7.2 27 6.6 26.7 6.1 L 26.6 6.1 Z M 23.4 8 C 23.4 7.7 23.2 7.4 23 7.2 L 23 7.3 C 23.2 7.5 23.3 7.7 23.3 8 H 23.4 Z M 23 7.2 C 22.8 7 22.6 6.9 22.3 6.9 V 7 C 22.6 7 22.8 7.1 23 7.3 L 23 7.2 Z M 22.3 6.9 H 19.9 V 7 H 22.3 V 6.9 Z M 19.8 6.9 V 9.1 H 19.9 V 6.9 H 19.8 Z M 19.9 9.1 H 22.3 V 9 H 19.9 V 9.1 Z M 22.3 9.1 C 22.6 9.1 22.8 9 23 8.8 L 23 8.7 C 22.8 8.9 22.6 9 22.3 9 V 9.1 Z M 23 8.8 C 23.2 8.6 23.4 8.3 23.4 8 H 23.3 C 23.3 8.3 23.2 8.5 23 8.7 L 23 8.8 Z M 29.3 15.8 H 29.3 V 15.8 H 29.3 V 15.8 Z M 29.3 4.3 V 4.3 H 29.3 V 4.3 H 29.3 Z M 33 4.3 H 33.1 V 4.3 H 33 V 4.3 Z M 33 15.8 V 15.8 H 33.1 V 15.8 H 33 Z M 29.4 15.8 V 4.3 H 29.3 V 15.8 H 29.4 Z M 29.3 4.3 H 33 V 4.3 H 29.3 V 4.3 Z M 33 4.3 V 15.8 H 33.1 V 4.3 H 33 Z M 33 15.8 H 29.3 V 15.8 H 33 V 15.8 Z M 44.4 4.6 L 44.4 4.6 L 44.4 4.6 L 44.4 4.6 Z M 46.5 6.1 L 46.5 6.1 L 46.5 6.1 L 46.5 6.1 Z M 47.3 8.5 V 8.5 H 47.3 V 8.5 H 47.3 Z M 43.8 8.5 H 43.8 V 8.5 H 43.8 V 8.5 Z M 43.2 7.3 L 43.1 7.3 L 43.1 7.3 L 43.2 7.3 Z M 39.6 7.6 L 39.7 7.6 L 39.7 7.6 L 39.6 7.6 Z M 39.6 12.6 L 39.6 12.6 L 39.6 12.6 L 39.6 12.6 Z M 43.2 12.8 L 43.2 12.9 L 43.2 12.9 L 43.2 12.8 Z M 43.8 11.7 H 43.8 V 11.7 H 43.8 V 11.7 Z M 41.2 11.7 H 41.2 V 11.8 H 41.2 V 11.7 Z M 41.2 9.4 V 9.4 H 41.2 V 9.4 H 41.2 Z M 47.3 9.4 H 47.3 V 9.4 H 47.3 V 9.4 Z M 47.3 15.8 V 15.8 H 47.3 V 15.8 H 47.3 Z M 45.4 15.8 L 45.4 15.8 L 45.4 15.8 H 45.4 V 15.8 Z M 45 14.7 L 45.1 14.7 L 45.1 14.6 L 45 14.7 L 45 14.7 Z M 36.6 14.5 L 36.6 14.6 L 36.6 14.6 L 36.6 14.5 Z M 36.8 5.6 L 36.8 5.7 L 36.8 5.7 L 36.8 5.6 Z M 41.5 4.1 C 42.6 4.1 43.6 4.3 44.4 4.6 L 44.4 4.6 C 43.6 4.3 42.6 4.1 41.5 4.1 V 4.1 Z M 44.4 4.6 C 45.3 5 46 5.5 46.5 6.1 L 46.6 6.1 C 46 5.4 45.3 4.9 44.4 4.6 L 44.4 4.6 Z M 46.5 6.1 C 47 6.8 47.3 7.5 47.3 8.5 H 47.3 C 47.3 7.5 47.1 6.7 46.6 6.1 L 46.5 6.1 Z M 47.3 8.4 H 43.8 V 8.5 H 47.3 V 8.4 Z M 43.8 8.5 C 43.8 8 43.6 7.6 43.2 7.3 L 43.1 7.3 C 43.6 7.6 43.8 8 43.8 8.5 H 43.8 Z M 43.2 7.3 C 42.7 7 42.2 6.8 41.6 6.8 V 6.9 C 42.2 6.9 42.7 7.1 43.1 7.3 L 43.2 7.3 Z M 41.6 6.8 C 40.7 6.8 40.1 7.1 39.6 7.6 L 39.7 7.6 C 40.1 7.1 40.7 6.9 41.6 6.9 V 6.8 Z M 39.6 7.6 C 39.2 8 38.9 8.7 38.9 9.5 H 39 C 39 8.7 39.2 8 39.7 7.6 L 39.6 7.6 Z M 38.9 9.5 V 10.6 H 39 V 9.5 H 38.9 Z M 38.9 10.6 C 38.9 11.5 39.2 12.1 39.6 12.6 L 39.7 12.6 C 39.2 12.1 39 11.4 39 10.6 H 38.9 Z M 39.6 12.6 C 40.1 13.1 40.7 13.3 41.6 13.3 V 13.2 C 40.7 13.2 40.1 13 39.7 12.6 L 39.6 12.6 Z M 41.6 13.3 C 42.2 13.3 42.7 13.1 43.2 12.9 L 43.1 12.8 C 42.7 13.1 42.2 13.2 41.6 13.2 V 13.3 Z M 43.2 12.9 C 43.6 12.6 43.8 12.2 43.8 11.7 H 43.8 C 43.8 12.2 43.6 12.5 43.1 12.8 L 43.2 12.9 Z M 43.8 11.7 H 41.2 V 11.8 H 43.8 V 11.7 Z M 41.2 11.7 V 9.4 H 41.2 V 11.7 H 41.2 Z M 41.2 9.4 H 47.3 V 9.4 H 41.2 V 9.4 Z M 47.3 9.4 V 15.8 H 47.3 V 9.4 H 47.3 Z M 47.3 15.8 H 45.4 V 15.8 H 47.3 V 15.8 Z M 45.4 15.8 L 45.1 14.7 L 45 14.7 L 45.4 15.8 L 45.4 15.8 Z M 45 14.7 C 44 15.5 42.6 16 40.9 16 V 16 C 42.6 16 44 15.6 45.1 14.7 L 45 14.7 Z M 40.9 16 C 39 16 37.6 15.5 36.7 14.5 L 36.6 14.6 C 37.6 15.6 39 16 40.9 16 V 16 Z M 36.7 14.5 C 35.7 13.5 35.2 12 35.2 10.1 H 35.2 C 35.2 12 35.6 13.5 36.6 14.6 L 36.7 14.5 Z M 35.2 10.1 C 35.2 8.1 35.8 6.7 36.8 5.7 L 36.8 5.6 C 35.7 6.6 35.2 8.1 35.2 10.1 H 35.2 Z M 36.8 5.7 C 37.9 4.6 39.5 4.1 41.5 4.1 V 4.1 C 39.5 4.1 37.9 4.6 36.8 5.6 L 36.8 5.7 Z M 49.8 15.8 H 49.7 V 15.8 H 49.8 V 15.8 Z M 49.8 4.3 V 4.3 H 49.7 V 4.3 H 49.8 Z M 53.5 4.3 H 53.5 V 4.3 H 53.5 V 4.3 Z M 53.5 15.8 V 15.8 H 53.5 V 15.8 H 53.5 Z M 49.8 15.8 V 4.3 H 49.7 V 15.8 H 49.8 Z M 49.8 4.3 H 53.5 V 4.3 H 49.8 V 4.3 Z M 53.4 4.3 V 15.8 H 53.5 V 4.3 H 53.4 Z M 53.5 15.8 H 49.8 V 15.8 H 53.5 V 15.8 Z M 64.3 15.8 L 64.3 15.8 L 64.3 15.8 H 64.3 V 15.8 Z M 59.5 10.2 L 59.5 10.2 L 59.5 10.2 V 10.2 H 59.5 Z M 59.5 15.8 V 15.8 H 59.5 V 15.8 H 59.5 Z M 56.1 15.8 H 56.1 V 15.8 H 56.1 V 15.8 Z M 56.1 4.3 V 4.3 H 56.1 V 4.3 H 56.1 Z M 59.3 4.3 L 59.4 4.3 L 59.3 4.3 H 59.3 V 4.3 Z M 64.2 10 L 64.1 10 L 64.2 10.1 V 10 H 64.2 Z M 64.2 4.3 V 4.3 H 64.1 V 4.3 H 64.2 Z M 67.6 4.3 H 67.6 V 4.3 H 67.6 V 4.3 Z M 67.6 15.8 V 15.8 H 67.6 V 15.8 H 67.6 Z M 64.4 15.8 L 59.5 10.2 L 59.5 10.3 L 64.3 15.8 L 64.4 15.8 Z M 59.5 10.2 V 15.8 H 59.5 V 10.2 H 59.5 Z M 59.5 15.8 H 56.1 V 15.8 H 59.5 V 15.8 Z M 56.1 15.8 V 4.3 H 56.1 V 15.8 H 56.1 Z M 56.1 4.3 H 59.3 V 4.3 H 56.1 V 4.3 Z M 59.3 4.3 L 64.1 10 L 64.2 10 L 59.4 4.3 L 59.3 4.3 Z M 64.2 10 V 4.3 H 64.1 V 10 H 64.2 Z M 64.2 4.3 H 67.6 V 4.3 H 64.2 V 4.3 Z M 67.5 4.3 V 15.8 H 67.6 V 4.3 H 67.5 Z M 67.6 15.8 H 64.3 V 15.8 H 67.6 V 15.8 Z" fill="black"/>
</svg>
