<svg width="24" height="24" viewBox="0 0 24 24" fill="none" xmlns="http://www.w3.org/2000/svg">
    <path fill-rule="evenodd" clip-rule="evenodd" d="M8.70711 7.29179C8.31658 6.90127 7.68342 6.90127 7.29289 7.29179C6.90237 7.68232 6.90237 8.31548 7.29289 8.70601L10.5858 11.9989L7.29289 15.2918C6.90237 15.6823 6.90237 16.3155 7.29289 16.706C7.68342 17.0965 8.31658 17.0965 8.70711 16.706L12 13.4131L15.2929 16.706C15.6834 17.0965 16.3166 17.0965 16.7071 16.706C17.0976 16.3155 17.0976 15.6823 16.7071 15.2918L13.4142 11.9989L16.7071 8.70601C17.0976 8.31548 17.0976 7.68232 16.7071 7.29179C16.3166 6.90127 15.6834 6.90127 15.2929 7.29179L12 10.5847L8.70711 7.29179Z" fill="#828282"/>
</svg>
